<?xml version="1.0" encoding="UTF-8"?>
<svg id="Layer_2" data-name="Layer 2" xmlns="http://www.w3.org/2000/svg" viewBox="0 0 68.31 71.29">
  <defs>
    <style>
      .cls-1 {
        fill: #fff;
      }

      .cls-1, .cls-2 {
        stroke-width: 0px;
      }

      .cls-2 {
        fill: #f1bb4d;
      }
    </style>
  </defs>
  <g id="Layer_1-2" data-name="Layer 1">
    <rect class="cls-2" width="68.31" height="71.29" rx="12.3" ry="12.3"/>
    <path class="cls-1" d="m54.55,57.96h-9.73c0-2.62.07-2.95.07-3.15h-.2c-2.35,2.21-6.64,3.96-11.4,3.96-11.67,0-21.13-8.25-21.13-24.15s8.85-24.55,20.79-24.55c5.03,0,8.92,1.74,11,4.02h.27l.2-3.09h9.12v17.17h-9.86v-.87c.07-2.35-3.09-7.04-9.59-7.04-7.11,0-11.07,4.96-11.07,14.02s4.36,14.42,11.47,14.42c5.63,0,8.85-2.75,9.99-4.76v-3.56h-10.13v-8.92h20.19v26.5Z"/>
  </g>
</svg>