<?xml version="1.0" encoding="UTF-8"?>
<svg id="Layer_2" data-name="Layer 2" xmlns="http://www.w3.org/2000/svg" viewBox="0 0 526.37 71.29">
  <defs>
    <style>
      .cls-1 {
        fill: #fff;
      }

      .cls-1, .cls-2 {
        stroke-width: 0px;
      }

      .cls-2 {
        fill: #f1bb4d;
      }
    </style>
  </defs>
  <g id="Layer_1-2" data-name="Layer 1">
    <rect class="cls-2" width="526.37" height="71.29" rx="12.3" ry="12.3"/>
    <g>
      <path class="cls-1" d="m313.3,47.83v9.46h-18.51v-9.46h3.76v-9.73h-14.49v9.73h3.69v9.46h-18.45v-9.46h4.02v-28.04h-4.02v-9.46h18.45v9.46h-3.69v8.85h14.49v-8.85h-3.76v-9.46h18.51v9.46h-4.09v28.04h4.09Z"/>
      <path class="cls-1" d="m356.56,57.29h-16.9v-8.85h2.62l-1.01-3.55h-10.67l-1.01,3.55h2.62v8.85h-15.96v-8.85h3.82l4.7-14.29c1.14-3.49,1.54-4.83,1.81-5.43l-.13-.13h-2.88v-8.85h19.79l9.39,28.71h3.82v8.85Zm-18.38-22.74l-2.28-7.71h-.2c-.07.27-.81,2.55-2.21,7.71l-.87,3.15h6.51l-.94-3.15Z"/>
      <path class="cls-1" d="m395.53,57.29h-9.26l-14.09-21.26h-.27l.13,7.98v4.43h2.88v8.85h-15.36v-8.85h3.82v-19.85h-3.82v-8.85h13.01l14.09,20.79h.2v-11.94h-2.95v-8.85h15.43v8.85h-3.82v28.71Z"/>
      <path class="cls-1" d="m428.59,57.29v-2.88h-.2c-2.01,1.81-5.63,3.56-9.86,3.56-8.99,0-16.84-6.84-16.84-19.52s7.71-19.45,17.11-19.45c4.49,0,7.71,1.61,9.32,3.35h.2l.27-2.62h8.12v14.09h-9.26v-1.21c0-1.95-2.21-4.29-6.64-4.29-5.77,0-8.79,3.62-8.79,10.2,0,6.91,3.09,10.8,8.85,10.8,3.55,0,6.31-1.61,7.51-2.88v-2.15h-8.12v-7.24h17.24v20.26h-8.92Z"/>
      <path class="cls-1" d="m442.81,57.29v-8.85h3.82v-19.85h-3.82v-8.85h30.86v12.88h-9.12v-4.02h-7.85v5.9h6.51v7.51h-6.51v6.44h8.12v-4.49h9.19v13.35h-31.19Z"/>
      <path class="cls-1" d="m502.98,57.29l-6.78-13.68h-3.35v4.83h2.01v8.85h-15.9v-8.85h3.82v-19.85h-3.82v-8.85h18.51c9.46,0,14.62,5.1,14.62,12.74,0,4.7-2.41,7.98-5.7,9.39l3.22,6.57h4.49v8.85h-11.13Zm-5.3-20.73c2.68,0,4.16-1.54,4.16-4.02s-1.34-4.02-4.23-4.02h-4.76v8.05h4.83Z"/>
    </g>
    <g>
      <path class="cls-1" d="m57.79,57.9h-9.73c0-2.62.07-2.95.07-3.15h-.2c-2.35,2.21-6.64,3.96-11.4,3.96-11.67,0-21.13-8.25-21.13-24.15s8.85-24.55,20.79-24.55c5.03,0,8.92,1.74,11,4.02h.27l.2-3.09h9.12v17.17h-9.86v-.87c.07-2.35-3.09-7.04-9.59-7.04-7.11,0-11.07,4.96-11.07,14.02s4.36,14.42,11.47,14.42c5.63,0,8.85-2.75,9.99-4.76v-3.56h-10.13v-8.92h20.19v26.5Z"/>
      <path class="cls-1" d="m101.59,57.9h-16.9v-8.85h2.62l-1.01-3.55h-10.67l-1.01,3.55h2.62v8.85h-15.96v-8.85h3.82l4.7-14.29c1.14-3.49,1.54-4.83,1.81-5.43l-.13-.13h-2.88v-8.85h19.79l9.39,28.71h3.82v8.85Zm-18.38-22.74l-2.28-7.71h-.2c-.07.27-.8,2.55-2.21,7.71l-.87,3.15h6.51l-.94-3.15Z"/>
      <path class="cls-1" d="m128.62,57.9l-6.77-13.68h-3.35v4.83h2.01v8.85h-15.9v-8.85h3.82v-19.85h-3.82v-8.85h18.51c9.46,0,14.62,5.1,14.62,12.74,0,4.7-2.42,7.98-5.7,9.39l3.22,6.57h4.49v8.85h-11.13Zm-5.3-20.73c2.68,0,4.16-1.54,4.16-4.02s-1.34-4.02-4.23-4.02h-4.76v8.05h4.83Z"/>
      <path class="cls-1" d="m160.81,20.33c11.34,0,18.92,7.38,18.92,18.92s-7.45,18.65-18.85,18.65h-17.98v-8.92h3.82v-19.79h-3.82v-8.85h17.91Zm-.6,28.64c4.96,0,9.39-2.28,9.39-9.66s-4.43-10.13-9.26-10.13h-3.56v19.79h3.42Z"/>
      <path class="cls-1" d="m183.35,57.9v-8.85h3.82v-19.85h-3.82v-8.85h30.86v12.88h-9.12v-4.02h-7.85v5.9h6.51v7.51h-6.51v6.44h8.12v-4.49h9.19v13.35h-31.19Z"/>
      <path class="cls-1" d="m255.45,57.9h-9.26l-14.09-21.26h-.27l.13,7.98v4.43h2.88v8.85h-15.36v-8.85h3.82v-19.85h-3.82v-8.85h13.01l14.09,20.79h.2v-11.94h-2.95v-8.85h15.43v8.85h-3.82v28.71Z"/>
    </g>
  </g>
</svg>